<?xml version="1.0" encoding="utf-8"?><!-- Generator: Adobe Illustrator 26.2.1, SVG Export Plug-In . SVG Version: 6.00 Build 0)  -->
<svg version="1.1" id="图层_1" xmlns="http://www.w3.org/2000/svg" x="0px" y="0px" viewBox="0 0 24 24"
	style="enable-background:new 0 0 24 24;" xml:space="preserve">
<style type="text/css">
	.st0{fill:none;stroke:#000000;stroke-miterlimit:10;}
</style>
	<g>
	<path d="M21,12.6l-2.2,6.7c0,0.1-0.2,0.3-0.4,0.3H5.6c-0.1,0-0.3-0.2-0.4-0.3L3,12.6H21 M21.4,11.6H2.6c-0.5,0-0.9,0.4-0.7,0.9
		l2.4,7c0.2,0.5,0.8,0.9,1.3,0.9h12.7c0.5,0,1.1-0.4,1.3-0.9l2.4-7C22.2,12.1,21.9,11.6,21.4,11.6L21.4,11.6z" />
</g>
	<g>
	<path class="st0" d="M6.8,12.2" />
</g>
	<path class="st0" d="M8.8,4.6" />
	<path class="st0" d="M11,6.2c0,0.7-1,0.7-2.2,0.7S6.6,6.8,6.6,6.2S7.6,5,8.8,5S11,5.5,11,6.2z" />
	<path class="st0" d="M8.8,5.1" />
	<g>
	<path class="st0" d="M8.8,5.1c0,0,0-0.4,0-0.9s-0.4-0.9-1-0.9H5.3c-0.5,0-1,0.4-1,1v7.5" />
</g>
</svg>
