<?xml version="1.0" encoding="utf-8"?><!-- Generator: Adobe Illustrator 26.2.1, SVG Export Plug-In . SVG Version: 6.00 Build 0)  -->
<svg version="1.1" id="图层_1" xmlns="http://www.w3.org/2000/svg" x="0px" y="0px" viewBox="0 0 24 24"
	style="enable-background:new 0 0 24 24;" xml:space="preserve">
<style type="text/css">
	.st0{fill:none;stroke:#000000;stroke-width:0.5;stroke-miterlimit:10;}
</style>
	<polyline class="st0" points="5.6,4.4 19.5,4.4 19.5,9.1 4.5,9.1 4.5,4.4 5.6,4.4 " />
	<g>
	<path class="st0" d="M9.6,4.4C9.6,3.1,10.7,2,12,2s2.4,1.1,2.4,2.4" />
		<path class="st0" d="M10.5,4.4c0-0.8,0.7-1.5,1.5-1.5s1.5,0.7,1.5,1.5" />
</g>
	<polygon class="st0" points="17,22 7,22 6.4,9.1 17.6,9.1 " />
	<g>
	<path class="st0" d="M10.1,18.9c0,0.3-0.2,0.5-0.4,0.5c-0.2,0-0.4-0.2-0.4-0.5L9,12.2c0-0.3,0.2-0.5,0.4-0.5c0.2,0,0.4,0.2,0.4,0.5
		L10.1,18.9z" />
</g>
	<g>
	<path class="st0"
		d="M12.4,18.9c0,0.3-0.2,0.5-0.4,0.5s-0.4-0.2-0.4-0.5v-6.7c0-0.3,0.2-0.5,0.4-0.5s0.4,0.2,0.4,0.5V18.9z" />
</g>
	<g>
	<path class="st0" d="M14.7,18.9c0,0.3-0.2,0.5-0.4,0.5c-0.2,0-0.4-0.2-0.4-0.5l0.4-6.7c0-0.3,0.2-0.5,0.4-0.5S15,12,15,12.2
		L14.7,18.9z" />
</g>
</svg>
