<?xml version="1.0" encoding="utf-8"?><!-- Generator: Adobe Illustrator 26.2.1, SVG Export Plug-In . SVG Version: 6.00 Build 0)  -->
<svg version="1.1" id="图层_1" xmlns="http://www.w3.org/2000/svg" x="0px" y="0px" viewBox="0 0 24 24"
	style="enable-background:new 0 0 24 24;" xml:space="preserve">
<style type="text/css">
	.st0{fill:none;stroke:#000000;stroke-miterlimit:10;}
</style>
	<g>
	<path class="st0" d="M21,15.5v3c0,0.5-0.5,1-1,1H4c-0.5,0-1-0.5-1-1v-3" />
</g>
	<polyline class="st0" points="17.3,11.5 21,11.5 21,15.5 " />
	<line class="st0" x1="9.3" y1="11.5" x2="14.8" y2="11.5" />
	<polyline class="st0" points="3,15.5 3,11.5 6.7,11.5 " />
	<g>
	<path class="st0" d="M6.7,11.5H3c-0.5,0-1-0.4-1-1V9.3" />
</g>
	<g>
	<line class="st0" x1="14.7" y1="11.5" x2="9.2" y2="11.5" />
</g>
	<g>
	<path class="st0" d="M14.7,11.5" />
</g>
	<g>
	<path class="st0" d="M22,9.5v1c0,0.6-0.5,1-1,1h-3.8" />
</g>
	<g>
	<path class="st0" d="M2,9.6v-3c0-0.1,0-0.1,0.1-0.1h19.8c0.1,0,0.1,0,0.1,0.1V10" />
</g>
	<g>
	<path class="st0" d="M9.5,12v1.4c0,0.1,0,0.1-0.1,0.1H6.6c-0.1,0-0.1,0-0.1-0.1v-1.5" />
</g>
	<g>
	<path class="st0" d="M6.5,11.9V9.6c0-0.1,0-0.1,0.1-0.1h2.8c0.1,0,0.1,0,0.1,0.1V12" />
</g>
	<g>
	<path class="st0" d="M17.5,12v1.4c0,0.1,0,0.1-0.1,0.1h-2.8c-0.1,0-0.1,0-0.1-0.1V12" />
</g>
	<g>
	<path class="st0" d="M14.5,12V9.6c0-0.1,0-0.1,0.1-0.1h2.8c0.1,0,0.1,0,0.1,0.1V12" />
</g>
	<polyline class="st0" points="15,4.6 15,6.5 9,6.5 9,4.5 " />
	<g>
	<path class="st0" d="M9,5c0,0,0-0.3,0-0.7s0.4-0.7,1-0.7h4c0.6,0,1,0.3,1,0.8S15,5,15,5" />
</g>
</svg>
