<?xml version="1.0" encoding="utf-8"?><!-- Generator: Adobe Illustrator 26.2.1, SVG Export Plug-In . SVG Version: 6.00 Build 0)  -->
<svg version="1.1" id="图层_1" xmlns="http://www.w3.org/2000/svg" x="0px" y="0px" viewBox="0 0 24 24"
	style="enable-background:new 0 0 24 24;" xml:space="preserve">
<style type="text/css">
	.st0{fill-rule:evenodd;clip-rule:evenodd;fill:#E60012;}
</style>
	<path class="st0" d="M21.9,7.7c0,1.5-0.5,2.9-1.5,3.9l-8.9,9.8L10,19.7L20,8.4c-0.6-0.3-1.2-0.5-1.7,0.1l-2.2,2.4l-0.4-0.2l3.9-4.3
	C19,6.1,18.4,6,18,6.4l-3.1,3.4l-0.4-0.2l3.9-4.3c-0.7-0.3-1.3-0.3-1.8,0.1l-2.9,3.2l-0.4-0.2l3.3-3.7c-0.3-0.1-1.2-0.4-1.8,0.2
	L12.1,8c-0.4,0.5-1.4,1.9-2.8,1.4C8.3,9,7.7,7.9,6.8,7.6c-1-0.3-2.1,0.6-2.1,1.6c1.1,0,1.9,0.7,2,2.2c0.3,2.4,1.6,4,5,5.4l-2.1,2.4
	l-6.2-6.8c-0.9-1-1.3-2.1-1.3-3.1c0-3.3,4-5.8,7.2-2.7c0.4,0.3,0.6,0.7,1.2,0l2.1-2.4c0.9-1,2.3-1.6,3.8-1.7
	C19.4,2.5,21.8,4.8,21.9,7.7z" />
</svg>
