<?xml version="1.0" encoding="UTF-8"?>
<svg xmlns="http://www.w3.org/2000/svg" viewBox="0 0 76.92 79.25">
    <defs>
        <style>.d{fill:none;stroke:#FFF;stroke-miterlimit:10;stroke-width:2px;}</style>
    </defs>
    <g id="a" />
    <g id="b">
        <g id="c">
            <path class="d" d="M75.92,42.55c-.94,19.87-17.35,35.7-37.46,35.7S1.85,62.34,1,42.38" />
            <path class="d" d="M1,39.12C1.85,19.16,18.3,3.25,38.46,3.25s36.51,15.81,37.46,35.68" />
            <circle class="d" cx="38.46" cy="40.75" r="30" />
            <line class="d" x1="38.46" y1="46" x2="38.46" />
            <line class="d" x1="11.96" y1="27.25" x2="64.96" y2="27.25" />
            <line class="d" x1="16.51" y1="34.25" x2="59.41" y2="34.25" />
            <line class="d" x1="14.96" y1="40.25" x2="61.96" y2="40.25" />
            <line class="d" x1="8.96" y1="46.25" x2="67.96" y2="46.25" />
            <line class="d" x1="16.01" y1="51.25" x2="60.91" y2="51.25" />
            <line class="d" x1="19.96" y1="58.25" x2="56.96" y2="58.25" />
            <path class="d"
                d="M26.4,22.21c3.35-1.86,7.53-2.96,12.07-2.96,11,0,19.92,6.49,19.92,14.5,0,.17,0,.33-.01,.5" />
            <path class="d" d="M59.96,51.25c0,7.73-9.63,14-21.5,14s-21.5-6.27-21.5-14" />
        </g>
    </g>
</svg>