<?xml version="1.0" encoding="utf-8"?><!-- Generator: Adobe Illustrator 26.2.1, SVG Export Plug-In . SVG Version: 6.00 Build 0)  -->
<svg version="1.1" id="图层_1" xmlns="http://www.w3.org/2000/svg" x="0px" y="0px" viewBox="0 0 24 24"
	style="enable-background:new 0 0 24 24;" xml:space="preserve">
<style type="text/css">
	.st0{fill:none;stroke:#000000;stroke-miterlimit:10;}
</style>
	<path class="st0"
		d="M9.7,10.5C9.1,12,7.7,13,6,13c-2.2,0-4-1.8-4-4s1.8-4,4-4c0.7,0,1.4,0.2,2,0.6" />
	<path class="st0" d="M1,21.5C1,16.8,3.2,13,6,13c0.8,0,1.5,0.3,2.2,0.8" />
	<path class="st0"
		d="M16,5.6C16.6,5.2,17.3,5,18,5c2.2,0,4,1.8,4,4s-1.8,4-4,4c-1.7,0-3.1-1-3.7-2.5" />
	<path class="st0" d="M15.8,13.8c0.7-0.5,1.4-0.8,2.2-0.8c2.8,0,5,3.8,5,8.5" />
	<path class="st0" d="M16,7c0,2.2-1.8,4-4,4S8,9.2,8,7s1.8-4,4-4S16,4.8,16,7" />
	<path class="st0" d="M6,22c0-6.1,2.7-11,6-11s6,4.9,6,11" />
</svg>
